<mxfile host="app.diagrams.net" agent="Mozilla/5.0 (Windows NT 10.0; Win64; x64) AppleWebKit/537.36 (KHTML, like Gecko) Chrome/129.0.0.0 Safari/537.36 Edg/129.0.0.0" version="24.7.16">
  <diagram id="C5RBs43oDa-KdzZeNtuy" name="Page-1">
    <mxGraphModel dx="1173" dy="647" grid="1" gridSize="10" guides="1" tooltips="1" connect="1" arrows="1" fold="1" page="1" pageScale="1" pageWidth="827" pageHeight="1169" math="0" shadow="0">
      <root>
        <mxCell id="WIyWlLk6GJQsqaUBKTNV-0" />
        <mxCell id="WIyWlLk6GJQsqaUBKTNV-1" parent="WIyWlLk6GJQsqaUBKTNV-0" />
        <mxCell id="Cb8utDRcraZFz2ysEnCc-0" value="&lt;span style=&quot;color: rgb(29, 33, 37); font-family: -apple-system, BlinkMacSystemFont, &amp;quot;Segoe UI&amp;quot;, Roboto, &amp;quot;Helvetica Neue&amp;quot;, Arial, &amp;quot;Noto Sans&amp;quot;, &amp;quot;Liberation Sans&amp;quot;, sans-serif, &amp;quot;Apple Color Emoji&amp;quot;, &amp;quot;Segoe UI Emoji&amp;quot;, &amp;quot;Segoe UI Symbol&amp;quot;, &amp;quot;Noto Color Emoji&amp;quot;; font-size: 15px; text-align: left; background-color: rgb(255, 255, 255);&quot;&gt;A bag contains milk and dark chocolates. You can take one chocolate out of the bag at a time without knowing which sort it is until itâ€™s out of the bag. Draw a flowchart and write the pseudocode describing an algorithm to sort all the chocolates in the bag into a pile of milk chocolates and a pile of dark chocolates.&lt;/span&gt;" style="text;html=1;align=center;verticalAlign=middle;whiteSpace=wrap;rounded=0;" vertex="1" parent="WIyWlLk6GJQsqaUBKTNV-1">
          <mxGeometry x="40" y="30" width="760" height="100" as="geometry" />
        </mxCell>
        <mxCell id="Cb8utDRcraZFz2ysEnCc-1" value="Start" style="strokeWidth=2;html=1;shape=mxgraph.flowchart.start_2;whiteSpace=wrap;" vertex="1" parent="WIyWlLk6GJQsqaUBKTNV-1">
          <mxGeometry x="240" y="160" width="100" height="100" as="geometry" />
        </mxCell>
        <mxCell id="Cb8utDRcraZFz2ysEnCc-4" value="" style="edgeStyle=orthogonalEdgeStyle;rounded=0;orthogonalLoop=1;jettySize=auto;html=1;" edge="1" parent="WIyWlLk6GJQsqaUBKTNV-1" source="Cb8utDRcraZFz2ysEnCc-2" target="Cb8utDRcraZFz2ysEnCc-3">
          <mxGeometry relative="1" as="geometry" />
        </mxCell>
        <mxCell id="Cb8utDRcraZFz2ysEnCc-6" value="" style="edgeStyle=orthogonalEdgeStyle;rounded=0;orthogonalLoop=1;jettySize=auto;html=1;" edge="1" parent="WIyWlLk6GJQsqaUBKTNV-1" source="Cb8utDRcraZFz2ysEnCc-2" target="Cb8utDRcraZFz2ysEnCc-5">
          <mxGeometry relative="1" as="geometry" />
        </mxCell>
        <mxCell id="Cb8utDRcraZFz2ysEnCc-2" value="Bag empty?" style="strokeWidth=2;html=1;shape=mxgraph.flowchart.decision;whiteSpace=wrap;" vertex="1" parent="WIyWlLk6GJQsqaUBKTNV-1">
          <mxGeometry x="240" y="310" width="100" height="100" as="geometry" />
        </mxCell>
        <mxCell id="Cb8utDRcraZFz2ysEnCc-3" value="end" style="whiteSpace=wrap;html=1;strokeWidth=2;shape=mxgraph.flowchart.terminator;" vertex="1" parent="WIyWlLk6GJQsqaUBKTNV-1">
          <mxGeometry x="430" y="335" width="110" height="50" as="geometry" />
        </mxCell>
        <mxCell id="Cb8utDRcraZFz2ysEnCc-11" value="" style="edgeStyle=orthogonalEdgeStyle;rounded=0;orthogonalLoop=1;jettySize=auto;html=1;" edge="1" parent="WIyWlLk6GJQsqaUBKTNV-1" source="Cb8utDRcraZFz2ysEnCc-5" target="Cb8utDRcraZFz2ysEnCc-10">
          <mxGeometry relative="1" as="geometry" />
        </mxCell>
        <mxCell id="Cb8utDRcraZFz2ysEnCc-5" value="Draw chocolate" style="whiteSpace=wrap;html=1;strokeWidth=2;" vertex="1" parent="WIyWlLk6GJQsqaUBKTNV-1">
          <mxGeometry x="230" y="450" width="120" height="60" as="geometry" />
        </mxCell>
        <mxCell id="Cb8utDRcraZFz2ysEnCc-7" value="yes" style="text;html=1;align=center;verticalAlign=middle;whiteSpace=wrap;rounded=0;" vertex="1" parent="WIyWlLk6GJQsqaUBKTNV-1">
          <mxGeometry x="330" y="330" width="60" height="30" as="geometry" />
        </mxCell>
        <mxCell id="Cb8utDRcraZFz2ysEnCc-8" value="no" style="text;html=1;align=center;verticalAlign=middle;whiteSpace=wrap;rounded=0;" vertex="1" parent="WIyWlLk6GJQsqaUBKTNV-1">
          <mxGeometry x="280" y="400" width="60" height="30" as="geometry" />
        </mxCell>
        <mxCell id="Cb8utDRcraZFz2ysEnCc-9" style="edgeStyle=orthogonalEdgeStyle;rounded=0;orthogonalLoop=1;jettySize=auto;html=1;entryX=0.5;entryY=0;entryDx=0;entryDy=0;entryPerimeter=0;" edge="1" parent="WIyWlLk6GJQsqaUBKTNV-1" source="Cb8utDRcraZFz2ysEnCc-1" target="Cb8utDRcraZFz2ysEnCc-2">
          <mxGeometry relative="1" as="geometry" />
        </mxCell>
        <mxCell id="Cb8utDRcraZFz2ysEnCc-13" value="" style="edgeStyle=orthogonalEdgeStyle;rounded=0;orthogonalLoop=1;jettySize=auto;html=1;" edge="1" parent="WIyWlLk6GJQsqaUBKTNV-1" source="Cb8utDRcraZFz2ysEnCc-10" target="Cb8utDRcraZFz2ysEnCc-12">
          <mxGeometry relative="1" as="geometry" />
        </mxCell>
        <mxCell id="Cb8utDRcraZFz2ysEnCc-20" value="" style="edgeStyle=orthogonalEdgeStyle;rounded=0;orthogonalLoop=1;jettySize=auto;html=1;" edge="1" parent="WIyWlLk6GJQsqaUBKTNV-1" source="Cb8utDRcraZFz2ysEnCc-10" target="Cb8utDRcraZFz2ysEnCc-19">
          <mxGeometry relative="1" as="geometry" />
        </mxCell>
        <mxCell id="Cb8utDRcraZFz2ysEnCc-10" value="Dark?" style="rhombus;whiteSpace=wrap;html=1;strokeWidth=2;" vertex="1" parent="WIyWlLk6GJQsqaUBKTNV-1">
          <mxGeometry x="250" y="545" width="80" height="80" as="geometry" />
        </mxCell>
        <mxCell id="Cb8utDRcraZFz2ysEnCc-23" style="edgeStyle=orthogonalEdgeStyle;rounded=0;orthogonalLoop=1;jettySize=auto;html=1;exitX=1;exitY=0.5;exitDx=0;exitDy=0;" edge="1" parent="WIyWlLk6GJQsqaUBKTNV-1" source="Cb8utDRcraZFz2ysEnCc-12">
          <mxGeometry relative="1" as="geometry">
            <mxPoint x="290" y="309.9999999999999" as="targetPoint" />
            <Array as="points">
              <mxPoint x="580" y="585" />
              <mxPoint x="580" y="290" />
              <mxPoint x="291" y="290" />
              <mxPoint x="291" y="310" />
            </Array>
          </mxGeometry>
        </mxCell>
        <mxCell id="Cb8utDRcraZFz2ysEnCc-12" value="Dark chocolate pile" style="whiteSpace=wrap;html=1;strokeWidth=2;" vertex="1" parent="WIyWlLk6GJQsqaUBKTNV-1">
          <mxGeometry x="390" y="555" width="120" height="60" as="geometry" />
        </mxCell>
        <mxCell id="Cb8utDRcraZFz2ysEnCc-16" value="yes" style="text;html=1;align=center;verticalAlign=middle;whiteSpace=wrap;rounded=0;" vertex="1" parent="WIyWlLk6GJQsqaUBKTNV-1">
          <mxGeometry x="310" y="555" width="60" height="30" as="geometry" />
        </mxCell>
        <mxCell id="Cb8utDRcraZFz2ysEnCc-17" value="no" style="text;html=1;align=center;verticalAlign=middle;whiteSpace=wrap;rounded=0;" vertex="1" parent="WIyWlLk6GJQsqaUBKTNV-1">
          <mxGeometry x="190" y="555" width="60" height="30" as="geometry" />
        </mxCell>
        <mxCell id="Cb8utDRcraZFz2ysEnCc-19" value="Milk chocolate pile" style="whiteSpace=wrap;html=1;strokeWidth=2;" vertex="1" parent="WIyWlLk6GJQsqaUBKTNV-1">
          <mxGeometry x="70" y="555" width="120" height="60" as="geometry" />
        </mxCell>
        <mxCell id="Cb8utDRcraZFz2ysEnCc-21" style="edgeStyle=orthogonalEdgeStyle;rounded=0;orthogonalLoop=1;jettySize=auto;html=1;entryX=0.5;entryY=0;entryDx=0;entryDy=0;entryPerimeter=0;" edge="1" parent="WIyWlLk6GJQsqaUBKTNV-1" source="Cb8utDRcraZFz2ysEnCc-19" target="Cb8utDRcraZFz2ysEnCc-2">
          <mxGeometry relative="1" as="geometry">
            <Array as="points">
              <mxPoint x="50" y="585" />
              <mxPoint x="50" y="290" />
              <mxPoint x="290" y="290" />
            </Array>
          </mxGeometry>
        </mxCell>
      </root>
    </mxGraphModel>
  </diagram>
</mxfile>
